#!OML:ASF F:\VICON\USERDATA\INSTALL\rory3\rory3.ASF
:FULLY-SPECIFIED
:DEGREES
1270
root -6.34363 16.9898 10.4572 -154.014 -27.8132 -174.771
lowerback -23.9083 1.00813 11.0697
upperback -7.57404 -4.41936 10.4791
thorax 5.10223 -3.13181 3.94094
lowerneck -18.6723 -14.7826 -1.8511
upperneck 14.1356 -19.4518 -1.53021
head 7.33729 -9.54131 -2.45145
rclavicle -1.90833e-014 -2.8625e-014
rhumerus 31.4405 -37.54 0.00858025
rradius 26.2522
rwrist 14.8663
rhand 32.1518 -4.30133
rfingers 7.12502
rthumb 55.6304 -21.974
lclavicle -1.90833e-014 -2.8625e-014
lhumerus 10.5561 23.7714 -17.8551
lradius 23.0297
lwrist -22.9117
lhand 14.3066 29.1338
lfingers 7.12502
lthumb 39.1986 54.5966
rfemur -18.1668 -11.1171 32.2269
rtibia 39.1648
rfoot 19.5571 -14.9999
rtoes -0.0194133
lfemur -45.1771 11.362 -38.6188
ltibia 26.9892
lfoot -26.1823 26.0008
ltoes 4.1961
1271
root -6.33826 16.9814 10.462 -153.831 -27.6586 -174.94
lowerback -23.9182 1.04616 10.7444
upperback -7.56242 -4.28053 10.4479
thorax 5.13886 -3.05793 4.12397
lowerneck -18.7227 -14.1147 -1.88774
upperneck 14.9931 -18.6024 -1.54805
head 7.64036 -9.13128 -2.41204
rclavicle 6.2816e-014 -5.08889e-014
rhumerus 32.0755 -38.3461 -0.571246
rradius 26.2935
rwrist 15.3691
rhand 31.9929 -4.85287
rfingers 7.12502
rthumb 55.4892 -22.6317
lclavicle 6.2816e-014 -5.08889e-014
lhumerus 11.1016 23.7308 -17.4322
lradius 23.0743
lwrist -22.6767
lhand 14.3276 30.0034
lfingers 7.12502
lthumb 39.2183 55.4606
rfemur -18.4193 -10.9854 32.0357
rtibia 39.3438
rfoot 19.846 -14.7979
rtoes -0.966158
lfemur -45.5025 11.4399 -38.9267
ltibia 27.2748
lfoot -26.0428 26.0328
ltoes 3.85519
1272
root -6.32967 16.9701 10.4705 -153.699 -27.5451 -174.8
lowerback -23.9189 1.2043 10.733
upperback -7.63394 -4.08153 10.4276
thorax 5.05776 -2.97474 4.16526
lowerneck -18.9501 -13.3651 -1.90366
upperneck 16.3106 -17.6592 -1.67687
head 8.1172 -8.68407 -2.43334
rclavicle 4.67144e-014 -1.08139e-013
rhumerus 32.4557 -38.805 -0.979713
rradius 26.3973
rwrist 15.7457
rhand 31.6127 -5.35985
rfingers 7.12502
rthumb 55.1507 -23.389
lclavicle 4.67144e-014 -1.08139e-013
lhumerus 11.8583 24.4478 -16.6746
lradius 22.9733
lwrist -23.5562
lhand 14.3199 30.0432
lfingers 7.12502
lthumb 39.2111 55.5024
rfemur -18.826 -10.747 32.1754
rtibia 39.6401
rfoot 19.8683 -14.7729
rtoes -1.01201
lfemur -45.7748 11.2449 -38.7738
ltibia 27.1957
lfoot -25.8258 26.4557
ltoes 3.32393
1273
root -6.3235 16.9878 10.4723 -153.473 -27.5741 -174.888
lowerback -23.9698 1.26715 10.5844
upperback -7.65142 -3.94683 10.3239
thorax 5.0631 -2.90328 4.1686
lowerneck -20.0061 -12.6226 -1.7446
upperneck 18.3627 -16.695 -2.27826
head 8.93385 -8.25262 -2.71839
rclavicle 5.24792e-014 -9.54166e-015
rhumerus 32.7638 -39.4471 -1.48169
rradius 26.4988
rwrist 16.344
rhand 31.2162 -5.58255
rfingers 7.12502
rthumb 54.7969 -23.8671
lclavicle 5.24792e-014 -9.54166e-015
lhumerus 12.7634 25.8555 -15.6927
lradius 22.6672
lwrist -25.0517
lhand 13.9174 29.0545
lfingers 7.12502
lthumb 38.8316 54.6226
rfemur -19.1462 -10.6805 32.1963
rtibia 39.8011
rfoot 19.6903 -14.973
rtoes -0.405766
lfemur -45.9646 10.946 -38.6752
ltibia 27.2546
lfoot -26.3885 26.2479
ltoes 4.93367
1274
root -6.31389 16.9654 10.4704 -153.667 -27.4765 -174.956
lowerback -23.8776 1.28858 10.4993
upperback -7.39214 -3.83569 10.1955
thorax 5.29724 -2.80689 4.10113
lowerneck -21.6888 -11.8856 -1.54228
upperneck 20.7541 -15.7107 -2.99627
head 9.99743 -7.81822 -3.10992
rclavicle 5.84427e-014 -1.11319e-013
rhumerus 33.1334 -40.2697 -2.15572
rradius 26.5647
rwrist 16.8856
rhand 30.7232 -5.87877
rfingers 7.12502
rthumb 54.356 -24.4732
lclavicle 5.84427e-014 -1.11319e-013
lhumerus 13.2203 26.0598 -15.3779
lradius 22.5789
lwrist -25.2845
lhand 13.4193 28.0302
lfingers 7.12502
lthumb 38.3617 53.7301
rfemur -19.0071 -10.5919 32.1021
rtibia 40.1301
rfoot 19.411 -15.04
rtoes 0.615135
lfemur -45.7414 11.6115 -39.0636
ltibia 27.0542
lfoot -25.8575 25.9908
ltoes 4.08694
1275
root -6.30629 16.9805 10.4671 -153.621 -27.5676 -174.946
lowerback -24.0627 1.32308 10.3663
upperback -7.17551 -3.7863 10.1914
thorax 5.63948 -2.75314 4.17976
lowerneck -22.5449 -11.0644 -1.45562
upperneck 22.2121 -14.6171 -3.28925
head 10.6675 -7.32488 -3.21413
rclavicle 3.35946e-014 -1.74931e-013
rhumerus 33.2449 -40.8522 -2.30878
rradius 26.7023
rwrist 16.928
rhand 30.2187 -6.27234
rfingers 7.12502
rthumb 53.9035 -25.1754
lclavicle 3.35946e-014 -1.74931e-013
lhumerus 13.8205 26.743 -14.5791
lradius 22.6412
lwrist -25.8186
lhand 13.0676 27.6461
lfingers 7.12502
lthumb 38.0297 53.4372
rfemur -19.1344 -10.5414 32.1948
rtibia 40.2615
rfoot 19.3392 -15.0677
rtoes 1.58168
lfemur -45.8144 11.7675 -39.1242
ltibia 26.946
lfoot -25.5914 25.8997
ltoes 3.797
1276
root -6.28987 16.9488 10.4824 -153.475 -27.544 -175.004
lowerback -24.1552 1.38867 10.1701
upperback -7.05115 -3.66685 10.1914
thorax 5.83496 -2.67954 4.322
lowerneck -21.7712 -10.084 -1.50893
upperneck 22.287 -13.3348 -3.06156
head 10.6038 -6.73818 -2.89734
rclavicle -9.20373e-014 1.97194e-013
rhumerus 33.8169 -41.7173 -2.97752
rradius 26.7525
rwrist 17.6681
rhand 29.8822 -6.42773
rfingers 7.12502
rthumb 53.601 -25.532
lclavicle -9.20373e-014 1.97194e-013
lhumerus 14.6027 27.7433 -13.339
lradius 22.8293
lwrist -26.4332
lhand 12.9076 28.5119
lfingers 7.12502
lthumb 37.8786 54.344
rfemur -19.4939 -10.2857 32.2153
rtibia 40.5777
rfoot 19.4324 -14.8525
rtoes 1.22863
lfemur -45.9027 11.9246 -39.4629
ltibia 26.556
lfoot -24.7915 26.1085
ltoes 2.74167
1277
root -6.26993 16.9422 10.4696 -153.993 -27.9364 -175.325
lowerback -23.769 1.06049 9.65024
upperback -6.84492 -3.83683 10.1946
thorax 5.89743 -2.72098 4.56977
lowerneck -22.2233 -9.26141 -1.5569
upperneck 23.8781 -12.2369 -3.33763
head 11.2822 -6.28244 -2.94405
rclavicle 5.56597e-014 -6.36111e-014
rhumerus 34.341 -42.4639 -3.72357
rradius 26.854
rwrist 18.5585
rhand 29.6106 -6.21588
rfingers 7.12502
rthumb 53.3566 -25.4798
lclavicle 5.56597e-014 -6.36111e-014
lhumerus 15.2737 28.1844 -12.2758
lradius 23.1754
lwrist -26.784
lhand 12.6426 29.0878
lfingers 7.12502
lthumb 37.6282 54.9873
rfemur -18.6668 -10.4984 32.0809
rtibia 40.5514
rfoot 18.9787 -14.9155
rtoes 0.0941062
lfemur -45.1867 12.3657 -39.6808
ltibia 26.663
lfoot -24.7207 25.4093
ltoes 2.84794
1278
root -6.26017 16.9542 10.4704 -154.178 -28.1617 -175.472
lowerback -23.5736 0.982079 9.42396
upperback -6.73553 -3.80856 10.1318
thorax 5.92476 -2.6845 4.63615
lowerneck -22.2783 -8.25225 -1.47393
upperneck 25.152 -10.9642 -3.37392
head 11.7958 -5.72375 -2.85047
rclavicle 3.37934e-014 -1.90833e-014
rhumerus 35.0176 -43.4748 -4.81471
rradius 26.9312
rwrist 19.6915
rhand 29.339 -5.5056
rfingers 7.12502
rthumb 53.1117 -24.927
lclavicle 3.37934e-014 -1.90833e-014
lhumerus 16.1976 29.3487 -10.7898
lradius 23.4561
lwrist -28.0542
lhand 12.2593 28.7558
lfingers 7.12502
lthumb 37.2659 54.7511
rfemur -18.4302 -10.5556 32.019
rtibia 40.6811
rfoot 17.882 -15.6901
rtoes 1.47007
lfemur -44.6913 12.3318 -39.6261
ltibia 26.3701
lfoot -24.9663 24.9941
ltoes 4.10329
1279
root -6.25551 16.9864 10.4689 -154.16 -28.1247 -175.728
lowerback -23.4194 1.00594 9.18868
upperback -6.62629 -3.63601 9.95672
thorax 5.96062 -2.57488 4.62218
lowerneck -22.4959 -7.26546 -1.26008
upperneck 26.4377 -9.71661 -3.52584
head 12.3435 -5.18486 -2.82486
rclavicle 5.36719e-014 1.27222e-013
rhumerus 36.6132 -45.3042 -7.21249
rradius 26.8265
rwrist 21.974
rhand 29.1385 -4.42972
rfingers 7.12502
rthumb 52.9308 -23.9658
lclavicle 5.36719e-014 1.27222e-013
lhumerus 17.2286 30.7234 -9.06003
lradius 23.874
lwrist -29.6067
lhand 11.6866 28.4008
lfingers 7.12502
lthumb 36.7242 54.5361
rfemur -18.27 -10.4827 31.7477
rtibia 40.6385
rfoot 17.4107 -16.2553
rtoes 4.1504
lfemur -44.3026 11.6008 -39.2204
ltibia 26.3815
lfoot -26.7143 24.4488
ltoes 8.66641
